<svg width="22" height="22" viewBox="0 0 22 22" fill="none" xmlns="http://www.w3.org/2000/svg">
<path fill-rule="evenodd" clip-rule="evenodd" d="M0 11C0 4.92487 4.92487 0 11 0C17.0751 0 22 4.92487 22 11C22 17.0751 17.0751 22 11 22C4.92487 22 0 17.0751 0 11ZM11 2.2C6.13989 2.2 2.2 6.13989 2.2 11C2.2 15.8601 6.13989 19.8 11 19.8C15.8601 19.8 19.8 15.8601 19.8 11C19.8 6.13989 15.8601 2.2 11 2.2ZM11 7.7C11.6075 7.7 12.1 8.19249 12.1 8.8V16.5C12.1 17.1075 11.6075 17.6 11 17.6C10.3925 17.6 9.9 17.1075 9.9 16.5V8.8C9.9 8.19249 10.3925 7.7 11 7.7Z" fill="#D8D4E0"/>
<circle cx="11.0004" cy="5.49941" r="1.1" fill="#D8D4E0"/>
</svg>
